<?xml version="1.0" encoding="utf-8"?>
<svg version="1.1" xmlns:xlink="http://www.w3.org/1999/xlink" width="157px" height="42px" xmlns="http://www.w3.org/2000/svg">
  <defs>
    <mask fill="white" id="clip18">
      <path d="M 0 42  L 0 0  L 74.437595129376 0  L 79.3602739726019 0  L 81.9410958904117 0  L 82.8013698630137 0  L 157 0  L 157 42  L 123.425418569253 42  L 73.2427701674288 42  L 72.0479452054789 42  L 0 42  Z " fill-rule="evenodd" />
    </mask>
  </defs>
  <g transform="matrix(1 0 0 1 -49 -121 )">
    <path d="M 0 42  L 0 0  L 74.437595129376 0  L 79.3602739726019 0  L 81.9410958904117 0  L 82.8013698630137 0  L 157 0  L 157 42  L 123.425418569253 42  L 73.2427701674288 42  L 72.0479452054789 42  L 0 42  Z " fill-rule="nonzero" fill="#ffffff" stroke="none" transform="matrix(1 0 0 1 49 121 )" />
    <path d="M 0 42  L 0 0  L 74.437595129376 0  L 79.3602739726019 0  L 81.9410958904117 0  L 82.8013698630137 0  L 157 0  L 157 42  L 123.425418569253 42  L 73.2427701674288 42  L 72.0479452054789 42  L 0 42  Z " stroke-width="2" stroke="#797979" fill="none" transform="matrix(1 0 0 1 49 121 )" mask="url(#clip18)" />
  </g>
</svg>