<?xml version="1.0" encoding="utf-8"?>
<svg version="1.1" xmlns:xlink="http://www.w3.org/1999/xlink" width="200px" height="30px" xmlns="http://www.w3.org/2000/svg">
  <defs>
    <mask fill="white" id="clip17">
      <path d="M 0 30  L 0 0  L 101.095890410958 0  L 104.383561643837 0  L 105.479452054795 0  L 200 0  L 200 30  L 0 30  Z " fill-rule="evenodd" />
    </mask>
  </defs>
  <g transform="matrix(1 0 0 1 -353 -136 )">
    <path d="M 0 30  L 0 0  L 101.095890410958 0  L 104.383561643837 0  L 105.479452054795 0  L 200 0  L 200 30  L 0 30  Z " fill-rule="nonzero" fill="#ffffff" stroke="none" transform="matrix(1 0 0 1 353 136 )" />
    <path d="M 0 30  L 0 0  L 101.095890410958 0  L 104.383561643837 0  L 105.479452054795 0  L 200 0  L 200 30  L 0 30  Z " stroke-width="2" stroke="#797979" fill="none" transform="matrix(1 0 0 1 353 136 )" mask="url(#clip17)" />
  </g>
</svg>